<?xml version="1.0" encoding="utf-8"?>
<!-- Generator: Adobe Illustrator 24.3.0, SVG Export Plug-In . SVG Version: 6.00 Build 0)  -->
<svg version="1.1" id="Layer_1" xmlns="http://www.w3.org/2000/svg" xmlns:xlink="http://www.w3.org/1999/xlink" x="0px" y="0px"
	 viewBox="0 0 174 161" style="enable-background:new 0 0 174 161;" xml:space="preserve">
<style type="text/css">
	.st0{fill:#FFD012;}
	.st1{fill:#FFFFFF;}
	.st2{fill:#CC0000;}
	.st3{fill:#303A47;}
	.st4{fill:none;stroke:#303A47;stroke-linecap:round;stroke-linejoin:round;}
</style>
<g transform="matrix( 1, 0, 0, 1, 0,0) ">
	<g>
		<g id="Layer0_1_FILL">
			<path class="st0" d="M49.9,10.4c-1.2,1.1-2.4,2.2-3.5,3.3c-5.5,6-9,13.8-10.7,23.5c-0.6,6.1-3,12-7.3,17.9
				c-1.4,2.3-5.7,7.3-12.7,15c-5,5.7-8.5,10.4-10.4,14.3C2.9,89.9,2.8,95.6,5,101.4c0.3,0.8,0.6,1.5,1,2.3c1.1,2.2,2.5,4.3,4.5,6.2
				c1.6,1.4,3.5,2.8,5.6,4.2c5.1,3.1,11,4.9,17.9,5.5c6.4,0.8,13.3,0.5,20.6-0.7c7.5-1.5,14.1-3.8,19.7-6.8
				c3.5-1.2,7.9-1.8,13.3-1.6c0.3,0,0.7,0,1.2,0c4.5,0.4,10.3,1.4,17.3,3l17.9,4c6.7,1.3,12.5,2,17.4,2c4.5,0,9.2-1.6,14-4.8
				c4.8-3,8.4-6.7,10.7-11.1c0.6-1.1,1.1-2.1,1.4-3.2c2.6-7.4,2.1-15.6-1.6-24.5c-4.1-10.9-12.7-22.8-25.6-35.4
				c-14.3-13.8-27.7-23.9-40-30.3c-0.3-0.2-0.6-0.3-0.9-0.4C87.7,4.3,77.2,1.9,67.9,2.7C60.7,3.7,54.7,6.2,49.9,10.4z"/>
		</g>
	</g>
</g>
<g transform="matrix( 1, 0, 0, 1, 0,0) ">
	<g>
		<g id="Layer0_1_MEMBER_1_FILL">
			<path class="st1" d="M70.1,17.4c-0.1,0.3-0.2,0.6-0.4,1c-1.1,2.5-1.6,4.9-1.7,7.3c0.3,0.1,0.6,0.3,0.9,0.6
				c0.5,0.8,0.7,1.5,0.7,2.2c0,0.7-0.2,1.4-0.7,2.2c-1.4,1.3-2.9,1.3-4.3,0c-0.6-0.8-0.9-1.5-0.9-2.2c0-0.7,0.3-1.4,0.9-2.2h0.1
				c0.1-0.1,0.2-0.2,0.4-0.3c0.1-3,0.8-5.9,2-8.6H37.6v102.1h97.1V17.4h-23.3c1.2,2.8,1.9,5.7,2,8.6c0.2,0.1,0.3,0.2,0.4,0.3h0.1
				c0.6,0.8,0.9,1.5,0.9,2.2c0,0.7-0.3,1.4-0.9,2.2c-1.4,1.3-2.9,1.3-4.3,0c-0.5-0.8-0.7-1.5-0.7-2.2c0-0.7,0.2-1.4,0.7-2.2
				c0.3-0.3,0.6-0.4,0.9-0.4c-0.1-2.5-0.7-5-1.7-7.5c-0.2-0.4-0.3-0.7-0.4-1H70.1 M86,62.3c2.4-6,6.4-8.5,12-7.5
				c6.1,0.5,9.1,4.3,9.2,11.4c0.3,3.8-1.1,6.8-4.2,8.8c-2.4,2.4-4.8,4.2-7.2,5.5c-5.1,3.4-8.1,6.3-8.9,8.9c-1-2.6-4.1-5.3-9.5-8.1
				c-2.7-1.2-5.4-3-8.1-5.2c-3-2-4.6-4.8-4.8-8.2c-0.1-6.8,2.6-11,8.1-12.5C78.4,54,82.9,56.3,86,62.3z"/>
			<path class="st2" d="M98,54.9c-5.6-1-9.6,1.5-12,7.5c-3.2-6.1-7.6-8.4-13.4-6.9c-5.5,1.5-8.2,5.7-8.1,12.5
				c0.2,3.5,1.8,6.2,4.8,8.2c2.7,2.2,5.4,3.9,8.1,5.2c5.4,2.8,8.5,5.5,9.5,8.1c0.9-2.6,3.8-5.6,8.9-8.9c2.4-1.2,4.8-3.1,7.2-5.5
				c3.1-2,4.5-4.9,4.2-8.8C107.1,59.1,104,55.3,98,54.9z"/>
			<path class="st3" d="M69.6,18.4c0.2-0.4,0.3-0.7,0.4-1c1.2-2.2,2.5-4.1,4.2-5.8c2-2,4.3-3.5,6.8-4.5c1.3-0.6,2.7-1.1,4.2-1.4
				l4-0.4l4.2,0.4c1.3,0.4,2.7,0.9,4,1.4c2.5,1,4.8,2.4,6.8,4.5c1.6,1.6,3,3.6,4.2,5.8c0.1,0.3,0.2,0.6,0.4,1c1.1,2.5,1.6,5,1.7,7.5
				c-0.3,0-0.6,0.1-0.9,0.4c-0.5,0.8-0.7,1.5-0.7,2.2c0,0.7,0.2,1.4,0.7,2.2c1.4,1.3,2.9,1.3,4.3,0c0.6-0.8,0.9-1.5,0.9-2.2
				c0-0.7-0.3-1.4-0.9-2.2h-0.1c-0.1-0.1-0.2-0.2-0.4-0.3c-0.1-3-0.8-5.9-2-8.6v-0.1c-1.2-2.7-2.9-5.2-5-7.6
				c-2.1-2.1-4.7-3.8-7.8-5.2c-2.8-1.2-5.8-1.9-8.9-1.9c-0.3,0-0.6,0-0.9,0c-3.2,0-6.1,0.6-8.9,1.9c-3.1,1.3-5.7,3.1-7.8,5.2
				c-2.1,2.4-3.8,4.9-5,7.6v0.1c-1.2,2.8-1.9,5.7-2,8.6c-0.2,0.1-0.3,0.2-0.4,0.3h-0.1c-0.6,0.8-0.9,1.5-0.9,2.2
				c0,0.7,0.3,1.4,0.9,2.2c1.4,1.3,2.9,1.3,4.3,0c0.5-0.8,0.7-1.5,0.7-2.2c0-0.7-0.2-1.4-0.7-2.2c-0.3-0.3-0.6-0.5-0.9-0.6
				C68,23.3,68.6,20.9,69.6,18.4z"/>
		</g>
	</g>
	<g>
		<path id="Layer0_1_MEMBER_1_1_STROKES" class="st4" d="M67,17.4H37.6v102.1h97.1V17.4h-23.3 M108.4,17.4H70.1 M98,54.9
			c6.1,0.5,9.1,4.3,9.2,11.4c0.3,3.8-1.1,6.8-4.2,8.8c-2.4,2.4-4.8,4.2-7.2,5.5c-5.1,3.4-8.1,6.3-8.9,8.9c-1-2.6-4.1-5.3-9.5-8.1
			c-2.7-1.2-5.4-3-8.1-5.2c-3-2-4.6-4.8-4.8-8.2c-0.1-6.8,2.6-11,8.1-12.5c5.8-1.4,10.2,0.9,13.4,6.9C88.4,56.4,92.4,53.9,98,54.9z"
			/>
	</g>
</g>
<g>
	<path class="st3" d="M5.9,154.7v-22.8h6.4c2,0,3.7,0.4,5.3,1.3c1.5,0.9,2.7,2.1,3.5,3.7c0.8,1.6,1.2,3.5,1.3,5.6v1.5
		c0,2.1-0.4,4-1.2,5.6c-0.8,1.6-2,2.9-3.5,3.7c-1.5,0.9-3.3,1.3-5.4,1.3H5.9z M8.9,134.4v17.8h3.2c2.3,0,4.1-0.7,5.4-2.2
		c1.3-1.4,1.9-3.5,1.9-6.1v-1.3c0-2.6-0.6-4.6-1.8-6c-1.2-1.4-2.9-2.2-5.2-2.2H8.9z"/>
	<path class="st3" d="M24.9,133.3c0-0.5,0.1-0.9,0.4-1.2c0.3-0.3,0.7-0.5,1.3-0.5s1,0.2,1.3,0.5c0.3,0.3,0.4,0.7,0.4,1.2
		s-0.1,0.9-0.4,1.2c-0.3,0.3-0.7,0.5-1.3,0.5s-1-0.2-1.3-0.5C25,134.2,24.9,133.8,24.9,133.3z M28,154.7h-2.9v-16.9H28V154.7z"/>
	<path class="st3" d="M36.6,150.8l4.2-13h3l-6.1,16.9h-2.2l-6.1-16.9h3L36.6,150.8z"/>
	<path class="st3" d="M44.9,133.3c0-0.5,0.1-0.9,0.4-1.2c0.3-0.3,0.7-0.5,1.3-0.5s1,0.2,1.3,0.5c0.3,0.3,0.4,0.7,0.4,1.2
		s-0.1,0.9-0.4,1.2c-0.3,0.3-0.7,0.5-1.3,0.5s-1-0.2-1.3-0.5C45.1,134.2,44.9,133.8,44.9,133.3z M48.1,154.7h-2.9v-16.9h2.9V154.7z"
		/>
	<path class="st3" d="M57.9,154.7v-22.8h6.4c2,0,3.7,0.4,5.3,1.3c1.5,0.9,2.7,2.1,3.5,3.7c0.8,1.6,1.2,3.5,1.3,5.6v1.5
		c0,2.1-0.4,4-1.2,5.6c-0.8,1.6-2,2.9-3.5,3.7c-1.5,0.9-3.3,1.3-5.4,1.3H57.9z M60.9,134.4v17.8H64c2.3,0,4.1-0.7,5.4-2.2
		c1.3-1.4,1.9-3.5,1.9-6.1v-1.3c0-2.6-0.6-4.6-1.8-6c-1.2-1.4-2.9-2.2-5.2-2.2H60.9z"/>
	<path class="st3" d="M83.8,155c-2.3,0-4.2-0.8-5.6-2.3c-1.4-1.5-2.2-3.5-2.2-6v-0.5c0-1.7,0.3-3.2,1-4.5c0.6-1.3,1.5-2.3,2.7-3.1
		c1.2-0.7,2.4-1.1,3.7-1.1c2.2,0,3.9,0.7,5.1,2.2c1.2,1.4,1.8,3.5,1.8,6.2v1.2H78.9c0,1.7,0.5,3,1.5,4c0.9,1,2.1,1.5,3.6,1.5
		c1,0,1.9-0.2,2.6-0.6c0.7-0.4,1.3-1,1.9-1.7l1.8,1.4C88.8,153.9,86.6,155,83.8,155z M83.4,139.8c-1.2,0-2.1,0.4-2.9,1.3
		c-0.8,0.8-1.3,2-1.5,3.6h8.5v-0.2c-0.1-1.5-0.5-2.6-1.2-3.4C85.6,140.2,84.6,139.8,83.4,139.8z"/>
	<path class="st3" d="M94.9,137.8l0.1,2.1c1.3-1.6,3-2.4,5.1-2.4c3.6,0,5.4,2,5.4,6v11.2h-2.9v-11.2c0-1.2-0.3-2.1-0.8-2.7
		c-0.5-0.6-1.4-0.9-2.6-0.9c-0.9,0-1.8,0.3-2.5,0.8c-0.7,0.5-1.3,1.2-1.7,2v12h-2.9v-16.9H94.9z"/>
	<path class="st3" d="M127.5,144.6H118v10h-3v-22.8h14.1v2.5H118v7.8h9.5V144.6z"/>
	<path class="st3" d="M138.4,140.4c-0.4-0.1-0.9-0.1-1.4-0.1c-1.9,0-3.2,0.8-3.9,2.4v12h-2.9v-16.9h2.8l0,2c0.9-1.5,2.3-2.3,4-2.3
		c0.6,0,1,0.1,1.3,0.2V140.4z"/>
	<path class="st3" d="M146.1,155c-2.3,0-4.2-0.8-5.6-2.3c-1.4-1.5-2.2-3.5-2.2-6v-0.5c0-1.7,0.3-3.2,1-4.5c0.6-1.3,1.5-2.3,2.7-3.1
		c1.2-0.7,2.4-1.1,3.7-1.1c2.2,0,3.9,0.7,5.1,2.2c1.2,1.4,1.8,3.5,1.8,6.2v1.2h-11.5c0,1.7,0.5,3,1.5,4c0.9,1,2.1,1.5,3.6,1.5
		c1,0,1.9-0.2,2.6-0.6c0.7-0.4,1.3-1,1.9-1.7l1.8,1.4C151.1,153.9,149,155,146.1,155z M145.8,139.8c-1.2,0-2.1,0.4-2.9,1.3
		c-0.8,0.8-1.3,2-1.5,3.6h8.5v-0.2c-0.1-1.5-0.5-2.6-1.2-3.4C147.9,140.2,147,139.8,145.8,139.8z"/>
	<path class="st3" d="M161.5,155c-2.3,0-4.2-0.8-5.6-2.3c-1.4-1.5-2.2-3.5-2.2-6v-0.5c0-1.7,0.3-3.2,1-4.5c0.6-1.3,1.5-2.3,2.7-3.1
		c1.2-0.7,2.4-1.1,3.7-1.1c2.2,0,3.9,0.7,5.1,2.2c1.2,1.4,1.8,3.5,1.8,6.2v1.2h-11.5c0,1.7,0.5,3,1.5,4c0.9,1,2.1,1.5,3.6,1.5
		c1,0,1.9-0.2,2.6-0.6c0.7-0.4,1.3-1,1.9-1.7l1.8,1.4C166.5,153.9,164.3,155,161.5,155z M161.1,139.8c-1.2,0-2.1,0.4-2.9,1.3
		c-0.8,0.8-1.3,2-1.5,3.6h8.5v-0.2c-0.1-1.5-0.5-2.6-1.2-3.4C163.3,140.2,162.3,139.8,161.1,139.8z"/>
</g>
</svg>
